Coordinates
version=1
nRows=17
nColumns=40
inDegrees=yes

Units are S.I. units (second, meters, Newtons, ...)
If the header above contains a line with 'inDegrees', this indicates whether rotational values are in degrees (yes) or radians (no).

endheader
time	pelvis_tilt	pelvis_list	pelvis_rotation	pelvis_tx	pelvis_ty	pelvis_tz	hip_flexion_r	hip_adduction_r	hip_rotation_r	knee_angle_r	knee_angle_r_beta	ankle_angle_r	subtalar_angle_r	mtp_angle_r	hip_flexion_l	hip_adduction_l	hip_rotation_l	knee_angle_l	knee_angle_l_beta	ankle_angle_l	subtalar_angle_l	mtp_angle_l	lumbar_extension	lumbar_bending	lumbar_rotation	arm_flex_r	arm_add_r	arm_rot_r	elbow_flex_r	pro_sup_r	wrist_flex_r	wrist_dev_r	arm_flex_l	arm_add_l	arm_rot_l	elbow_flex_l	pro_sup_l	wrist_flex_l	wrist_dev_l
      2.81000000	      4.21712809	     -6.74803370	     -2.53955885	     -0.34397524	      0.93709807	     -1.05021753	     43.13945946	      2.31993987	    -10.49582442	     19.72386685	      0.34424642	    -13.20353886	      0.00000000	      0.00000000	     30.83432809	     -6.45478121	     -6.59741117	     63.46829739	      1.10773076	     15.73526968	      0.00000000	      0.00000000	    -18.78345514	      3.24449732	      7.29037180	     85.14489642	    -26.38266118	     39.91082813	     42.28707894	     79.35461867	      0.00000000	      0.00000000	     88.88670565	    -19.66587981	     55.89500156	     33.17326837	     82.11020142	      0.00000000	      0.00000000
      2.81500000	      4.17904030	     -6.77336925	     -2.53540084	     -0.34410532	      0.93625253	     -1.05016646	     43.24912140	      2.33790313	    -10.58212891	     19.75849153	      0.34485073	    -13.14863751	      0.00000000	      0.00000000	     30.98280185	     -6.44927711	     -6.50703122	     63.66276032	      1.11112478	     15.89578909	      0.00000000	      0.00000000	    -18.74843269	      3.27073048	      7.27620064	     85.23709708	    -26.37911316	     40.21324366	     42.18744891	     78.96825094	      0.00000000	      0.00000000	     88.88641126	    -19.65623515	     55.89324379	     33.21104363	     81.99889844	      0.00000000	      0.00000000
      2.82000000	      4.15978332	     -6.75725783	     -2.59752624	     -0.34417181	      0.93545242	     -1.05004179	     43.34881158	      2.36382476	    -10.55122280	     19.85165358	      0.34647672	    -13.11166627	      0.00000000	      0.00000000	     31.08691856	     -6.43598151	     -6.48764995	     63.84067769	      1.11423002	     15.96259630	      0.00000000	      0.00000000	    -18.75189287	      3.24726901	      7.30986711	     85.25647155	    -26.37439945	     40.14165421	     42.26970079	     79.60850993	      0.00000000	      0.00000000	     88.90726627	    -19.65028158	     55.79721225	     33.16245521	     82.15539681	      0.00000000	      0.00000000
      2.82500000	      4.14803581	     -6.80766593	     -2.57649934	     -0.34452836	      0.93465275	     -1.04998782	     43.42905373	      2.39549493	    -10.60315541	     19.88188884	      0.34700442	    -13.18315857	      0.00000000	      0.00000000	     31.24072755	     -6.44131734	     -6.34871085	     64.04347634	      1.11776953	     16.05303471	      0.00000000	      0.00000000	    -18.77823781	      3.30152717	      7.27324645	     85.34311829	    -26.30766710	     40.15884848	     42.21350477	     79.54545250	      0.00000000	      0.00000000	     88.95700064	    -19.67313658	     55.74423773	     33.23325650	     81.99645723	      0.00000000	      0.00000000
      2.83000000	      4.09484962	     -6.83458267	     -2.55171145	     -0.34475404	      0.93384599	     -1.04998364	     43.56404661	      2.40603282	    -10.62923807	     19.95020338	      0.34819674	    -13.20375857	      0.00000000	      0.00000000	     31.40393944	     -6.40205419	     -6.20479327	     64.20577422	      1.12060216	     16.12582075	      0.00000000	      0.00000000	    -18.75223199	      3.35901687	      7.19758929	     85.40715811	    -26.21483980	     40.21687146	     42.18775032	     79.49052009	      0.00000000	      0.00000000	     88.97851220	    -19.76265493	     55.69479859	     33.25911645	     82.13066168	      0.00000000	      0.00000000
      2.83500000	      4.07215374	     -6.84848940	     -2.58789701	     -0.34486501	      0.93302622	     -1.04983475	     43.66649933	      2.44865937	    -10.65081680	     20.01435626	      0.34931641	    -13.22037102	      0.00000000	      0.00000000	     31.52749146	     -6.40680301	     -6.14047492	     64.39774557	      1.12395269	     16.25799466	      0.00000000	      0.00000000	    -18.74842175	      3.37336455	      7.18462746	     85.40710481	    -26.13343980	     40.13257403	     42.20854873	     79.44360564	      0.00000000	      0.00000000	     89.02619385	    -19.86446636	     55.87418206	     33.34720341	     81.95064673	      0.00000000	      0.00000000
      2.84000000	      4.05967271	     -6.84997954	     -2.58431451	     -0.34504080	      0.93225754	     -1.04981043	     43.73415728	      2.45399812	    -10.65222860	     20.03480828	      0.34967337	    -13.22166032	      0.00000000	      0.00000000	     31.64741282	     -6.36592179	     -6.03855863	     64.57546684	      1.12705451	     16.33716223	      0.00000000	      0.00000000	    -18.75905278	      3.37130932	      7.17598555	     85.41870790	    -26.15034833	     40.12215434	     42.27858114	     79.43969569	      0.00000000	      0.00000000	     89.05404898	    -19.81705885	     55.76180216	     33.29814679	     82.11207407	      0.00000000	      0.00000000
      2.84500000	      4.09416889	     -6.87309326	     -2.56202907	     -0.34521592	      0.93154298	     -1.04978188	     43.77832107	      2.45593845	    -10.75943798	     20.12204084	      0.35119586	    -13.18639093	      0.00000000	      0.00000000	     31.71251780	     -6.34298700	     -5.93257774	     64.73219493	      1.12978993	     16.45339885	      0.00000000	      0.00000000	    -18.82967711	      3.40867462	      7.13129222	     85.56212269	    -26.09861169	     40.28751544	     42.19994759	     79.62427562	      0.00000000	      0.00000000	     89.06732981	    -19.85692992	     55.54961919	     33.34107933	     82.29311706	      0.00000000	      0.00000000
      2.85000000	      4.08752746	     -6.91328286	     -2.54664819	     -0.34551984	      0.93076853	     -1.04964347	     43.85581314	      2.50470721	    -10.76384283	     20.13722960	      0.35146096	    -13.19984870	      0.00000000	      0.00000000	     31.83358104	     -6.35434934	     -5.82362579	     64.91963752	      1.13306142	     16.59431997	      0.00000000	      0.00000000	    -18.85634089	      3.45693305	      7.06509674	     85.61535854	    -25.99300858	     40.29540321	     42.19162597	     79.66195086	      0.00000000	      0.00000000	     89.09137925	    -19.94661349	     55.46290369	     33.41388761	     82.23800733	      0.00000000	      0.00000000
      2.85500000	      4.03690046	     -6.93699463	     -2.55716115	     -0.34561135	      0.92991259	     -1.04957481	     43.96633059	      2.53863653	    -10.76656075	     20.15837836	      0.35183007	    -13.15638827	      0.00000000	      0.00000000	     32.00163804	     -6.33594060	     -5.69315699	     65.12597963	      1.13666277	     16.69636976	      0.00000000	      0.00000000	    -18.81427705	      3.48197896	      7.04674153	     85.57312145	    -25.96025057	     40.14540652	     42.26079448	     79.59920293	      0.00000000	      0.00000000	     89.13640133	    -19.97752746	     55.60269047	     33.43171427	     82.12037981	      0.00000000	      0.00000000
      2.86000000	      4.05412157	     -6.97725450	     -2.55867699	     -0.34567646	      0.92913067	     -1.04947284	     44.00992102	      2.59697303	    -10.76820722	     20.19564565	      0.35248051	    -13.06110979	      0.00000000	      0.00000000	     32.09484311	     -6.35100833	     -5.59927271	     65.32651238	      1.14016273	     16.82683187	      0.00000000	      0.00000000	    -18.84448518	      3.53155781	      7.03270865	     85.67203732	    -25.91807605	     40.28378354	     42.19955854	     79.73867594	      0.00000000	      0.00000000	     89.15883857	    -20.02348680	     55.57702964	     33.46290850	     82.00755697	      0.00000000	      0.00000000
      2.86500000	      4.04543724	     -6.98432046	     -2.55357953	     -0.34594087	      0.92835481	     -1.04931872	     44.08088300	      2.61504833	    -10.81008565	     20.18635750	      0.35231840	    -13.13064383	      0.00000000	      0.00000000	     32.21483126	     -6.34224003	     -5.51267047	     65.48831541	      1.14298673	     16.82702489	      0.00000000	      0.00000000	    -18.86853616	      3.58722761	      6.82957952	     85.78969265	    -25.51691426	     40.42482085	     42.01083165	     78.30029230	      0.00000000	      0.00000000	     89.19706504	    -20.44040862	     55.92743020	     33.78532661	     81.05937558	      0.00000000	      0.00000000
      2.87000000	      4.04242353	     -7.00241501	     -2.59984248	     -0.34603184	      0.92760059	     -1.04916475	     44.16299723	      2.68096666	    -10.80942452	     20.23409631	      0.35315160	    -13.17551799	      0.00000000	      0.00000000	     32.31387514	     -6.37485033	     -5.50315488	     65.69306277	      1.14656024	     16.97041668	      0.00000000	      0.00000000	    -18.87762934	      3.55464169	      6.93511880	     85.72053086	    -25.66933897	     40.22035408	     42.15986518	     79.15684530	      0.00000000	      0.00000000	     89.20210064	    -20.22216970	     55.42940905	     33.60755529	     81.93334753	      0.00000000	      0.00000000
      2.87500000	      4.07306765	     -7.08971664	     -2.57862620	     -0.34615363	      0.92684884	     -1.04903529	     44.17925355	      2.76168854	    -10.89167808	     20.22832705	      0.35305091	    -13.11775523	      0.00000000	      0.00000000	     32.40802443	     -6.43797499	     -5.36713982	     65.92261761	      1.15056673	     17.07595091	      0.00000000	      0.00000000	    -18.93219407	      3.65624087	      6.91824219	     85.78326002	    -25.63455524	     40.24095386	     42.19236765	     79.41928732	      0.00000000	      0.00000000	     89.20784094	    -20.27359238	     55.24898194	     33.66366902	     82.16216881	      0.00000000	      0.00000000
      2.88000000	      4.03173860	     -7.14559740	     -2.58270511	     -0.34637962	      0.92601694	     -1.04891574	     44.28318837	      2.83324562	    -10.87386971	     20.23746518	      0.35321040	    -13.13008563	      0.00000000	      0.00000000	     32.57260722	     -6.47900771	     -5.27907801	     66.11839050	      1.15398361	     17.18029154	      0.00000000	      0.00000000	    -18.92586418	      3.70649121	      6.90959433	     85.81806154	    -25.61578215	     40.26895549	     42.22801415	     79.45645850	      0.00000000	      0.00000000	     89.23496643	    -20.29317975	     55.13195774	     33.65618801	     82.28497561	      0.00000000	      0.00000000
      2.88500000	      4.08642809	     -7.08334750	     -2.62855409	     -0.34657776	      0.92533036	     -1.04871889	     44.31285581	      2.82769723	    -10.81155446	     20.29443862	      0.35420477	    -13.10811716	      0.00000000	      0.00000000	     32.58978182	     -6.44163655	     -5.31844409	     66.27632957	      1.15674017	     17.29712128	      0.00000000	      0.00000000	    -19.00876704	      3.63406423	      6.85718071	     85.88840759	    -25.47818368	     40.27139333	     42.17267868	     79.55096291	      0.00000000	      0.00000000	     89.26785645	    -20.43500746	     55.07955805	     33.77769491	     82.17788605	      0.00000000	      0.00000000
      2.89000000	      4.08235952	     -7.09813132	     -2.64830357	     -0.34669619	      0.92455540	     -1.04856627	     44.37717007	      2.88118667	    -10.73098631	     20.29488158	      0.35421250	    -13.11491562	      0.00000000	      0.00000000	     32.68861771	     -6.47146471	     -5.31406815	     66.46137734	      1.15996986	     17.39327079	      0.00000000	      0.00000000	    -19.01798520	      3.64089467	      6.85080258	     85.91349798	    -25.45473237	     40.30713240	     42.18339197	     79.74868731	      0.00000000	      0.00000000	     89.29911129	    -20.45840655	     55.13947917	     33.75294246	     81.78460066	      0.00000000	      0.00000000
